{
  "accessors": [
    {
      "bufferView": 2,
      "componentType": 5126,
      "count": 781,
      "max": [
        18.377681732177734,
        1.9303045272827148,
        4.846681594848633
      ],
      "min": [
        -18.377681732177734,
        -4.10909366607666,
        0.4598325788974762
      ],
      "type": "VEC3"
    },
    {
      "bufferView": 2,
      "byteOffset": 9372,
      "componentType": 5126,
      "count": 781,
      "max": [
        0.9768925309181213,
        0.9999980330467224,
        1.0
      ],
      "min": [
        -0.9769275188446045,
        -0.9999873638153076,
        -0.9999986886978149
      ],
      "type": "VEC3"
    },
    {
      "bufferView": 3,
      "componentType": 5126,
      "count": 781,
      "max": [
        1.0,
        0.9997662305831909,
        0.9498594999313354,
        1.0
      ],
      "min": [
        -0.9999995827674866,
        -0.9997668862342834,
        -0.949853777885437,
        1.0
      ],
      "type": "VEC4"
    },
    {
      "bufferView": 1,
      "componentType": 5126,
      "count": 781,
      "max": [
        0.9951479434967041,
        0.9979999661445618
      ],
      "min": [
        0.0020000000949949026,
        0.0020000000949949026
      ],
      "type": "VEC2"
    },
    {
      "bufferView": 0,
      "componentType": 5125,
      "count": 3420,
      "type": "SCALAR"
    }
  ],
  "asset": {
    "extras": {
      "author": "FlukierJupiter (https://sketchfab.com/FlukierJupiter)",
      "license": "CC-BY-4.0 (http://creativecommons.org/licenses/by/4.0/)",
      "source": "https://sketchfab.com/3d-models/scroll-7450e494eb654e9b937bb52724220e77",
      "title": "Scroll"
    },
    "generator": "Sketchfab-12.68.0",
    "version": "2.0"
  },
  "bufferViews": [
    {
      "buffer": 0,
      "byteLength": 13680,
      "name": "floatBufferViews",
      "target": 34963
    },
    {
      "buffer": 0,
      "byteLength": 6248,
      "byteOffset": 13680,
      "byteStride": 8,
      "name": "floatBufferViews",
      "target": 34962
    },
    {
      "buffer": 0,
      "byteLength": 18744,
      "byteOffset": 19928,
      "byteStride": 12,
      "name": "floatBufferViews",
      "target": 34962
    },
    {
      "buffer": 0,
      "byteLength": 12496,
      "byteOffset": 38672,
      "byteStride": 16,
      "name": "floatBufferViews",
      "target": 34962
    }
  ],
  "buffers": [
    {
      "byteLength": 51168,
      "uri": "scene.bin"
    }
  ],
  "images": [
    {
      "uri": "textures/01_-_Default_baseColor.png"
    },
    {
      "uri": "textures/01_-_Default_metallicRoughness.png"
    },
    {
      "uri": "textures/01_-_Default_normal.png"
    }
  ],
  "materials": [
    {
      "alphaMode": "BLEND",
      "name": "01_-_Default",
      "normalTexture": {
        "index": 2
      },
      "occlusionTexture": {
        "index": 1
      },
      "pbrMetallicRoughness": {
        "baseColorTexture": {
          "index": 0
        },
        "metallicFactor": 0.0,
        "metallicRoughnessTexture": {
          "index": 1
        }
      }
    }
  ],
  "meshes": [
    {
      "name": "Scroll_LP_01 - Default_0",
      "primitives": [
        {
          "attributes": {
            "NORMAL": 1,
            "POSITION": 0,
            "TANGENT": 2,
            "TEXCOORD_0": 3
          },
          "indices": 4,
          "material": 0,
          "mode": 4
        }
      ]
    }
  ],
  "nodes": [
    {
      "children": [
        1
      ],
      "matrix": [
        1.0,
        0.0,
        0.0,
        0.0,
        0.0,
        2.220446049250313e-16,
        -1.0,
        0.0,
        0.0,
        1.0,
        2.220446049250313e-16,
        0.0,
        0.0,
        0.0,
        0.0,
        1.0
      ],
      "name": "Sketchfab_model"
    },
    {
      "children": [
        2
      ],
      "matrix": [
        1.0,
        0.0,
        0.0,
        0.0,
        0.0,
        0.0,
        1.0,
        0.0,
        0.0,
        -1.0,
        0.0,
        0.0,
        0.0,
        0.0,
        0.0,
        1.0
      ],
      "name": "ae0ae2ffe9794966bd7b5ef444cbb9cb.fbx"
    },
    {
      "children": [
        3
      ],
      "name": "RootNode"
    },
    {
      "children": [
        4
      ],
      "matrix": [
        1.0,
        0.0,
        0.0,
        0.0,
        0.0,
        2.220446049250313e-16,
        -1.0,
        0.0,
        0.0,
        1.393018126487732,
        3.0931215954937573e-16,
        0.0,
        -1.9073486328125e-06,
        -0.785797119140625,
        -1.1601533889770508,
        1.0
      ],
      "name": "Scroll_LP"
    },
    {
      "mesh": 0,
      "name": "Scroll_LP_01 - Default_0"
    }
  ],
  "samplers": [
    {
      "magFilter": 9729,
      "minFilter": 9987,
      "wrapS": 10497,
      "wrapT": 10497
    }
  ],
  "scene": 0,
  "scenes": [
    {
      "name": "Sketchfab_Scene",
      "nodes": [
        0
      ]
    }
  ],
  "textures": [
    {
      "sampler": 0,
      "source": 0
    },
    {
      "sampler": 0,
      "source": 1
    },
    {
      "sampler": 0,
      "source": 2
    }
  ]
}
